<?xml version="1.0" encoding="UTF-8"?>
<svg width="314px" height="314px" viewBox="0 0 314 314" version="1.1" xmlns="http://www.w3.org/2000/svg" xmlns:xlink="http://www.w3.org/1999/xlink">
    <title>FINAL</title>
    <g id="FINAL" stroke="none" stroke-width="1" fill="none" fill-rule="evenodd">
        <rect id="Rectangle" fill="#FFFFFF" x="0" y="0" width="314" height="314" rx="83"></rect>
        <g id="Group-8" transform="translate(56.000000, 58.000000)" fill="#000000" fill-rule="nonzero">
            <g id="LoDi-Screenshot-2026-01-04-at-3.42.26-PM.png">
                <path d="M199.913559,196.385303 L200.459006,197.445 L200.109269,197.364244 C191.0205,195.280172 181.675875,193.471257 172.108909,191.956056 L164.386379,188.645123 L157.039841,174.029346 C172.273186,179.283325 186.783293,186.654806 199.913559,196.385303 Z M40.6459977,175.21516 L33.9192145,188.479026 L24.8719941,192.41711 C16.3950533,193.817572 8.09685492,195.449199 0.00100570579,197.298858 C5.91820653,192.569337 11.2497125,189.640013 17.9460393,185.78598 C25.1960517,181.613347 32.8044251,178.110729 40.6459977,175.21516 Z M98.7074133,0 L185.335593,168.097392 C173.260669,161.988043 160.361142,157.211339 146.859544,153.777747 L99.4013071,59.3651948 L51.1044099,154.595461 C37.2267858,158.324248 24.1212622,163.496956 12.0716782,170.156402 L98.7074133,0 Z" id="Combined-Shape"></path>
                <path d="M115.472937,164.901013 C146.320147,168.18816 176.632705,178.555189 201.703941,197.73334 C170.394133,190.418887 136.004359,186.378532 99.9184201,186.378532 C64.5495164,186.378532 30.8100415,190.259917 0.00100570579,197.298858 C5.91820653,192.569337 11.2497125,189.640013 17.9460393,185.78598 C40.9266412,172.559848 67.5077689,166.065501 93.7034045,164.297604 C98.6624371,163.671875 110.446685,164.365334 115.472937,164.901013 Z" id="Combined-Shape"></path>
            </g>
        </g>
    </g>
</svg>
